<svg width="300" height="300" viewBox="0 0 300 300" fill="none" xmlns="http://www.w3.org/2000/svg">
<circle cx="150" cy="150" r="150" fill="url(#paint0_linear)"/>
<path d="M178.6 182.5L178.6 116.5L203.2 116.5L203.2 182.5L178.6 182.5ZM219.6 188.028L219.6 174.25L236 174.25L236 124.75L219.6 124.75L219.6 110.973C219.6 108.062 218.451 105.272 216.406 103.214C214.36 101.156 211.586 100 208.694 100L82.906 100C76.92 100 72 104.95 72 110.973L72 188.028C72 190.938 73.149 193.729 75.1943 195.786C77.2396 197.844 80.0135 199 82.906 199L208.694 199C214.68 199 219.6 194.05 219.6 188.028Z" fill="white"/>
<defs>
<linearGradient id="paint0_linear" x1="150" y1="0" x2="150" y2="300" gradientUnits="userSpaceOnUse">
<stop stop-color="#111E3A"/>
<stop offset="1" stop-color="#176999"/>
</linearGradient>
</defs>
</svg>
