<svg width="300" height="300" viewBox="0 0 300 300" fill="none" xmlns="http://www.w3.org/2000/svg">
<circle cx="150" cy="150" r="150" fill="url(#paint0_linear)"/>
<path d="M140 234C140 239.523 144.477 244 150 244C155.523 244 160 239.523 160 234L140 234ZM157.071 58.9289C153.166 55.0237 146.834 55.0237 142.929 58.9289L79.2893 122.569C75.3841 126.474 75.3841 132.805 79.2893 136.711C83.1946 140.616 89.5262 140.616 93.4315 136.711L150 80.1421L206.569 136.711C210.474 140.616 216.805 140.616 220.711 136.711C224.616 132.805 224.616 126.474 220.711 122.569L157.071 58.9289ZM160 234L160 66L140 66L140 234L160 234Z" fill="white"/>
<defs>
<linearGradient id="paint0_linear" x1="150" y1="0" x2="150" y2="300" gradientUnits="userSpaceOnUse">
<stop stop-color="#111E3A"/>
<stop offset="1" stop-color="#176999"/>
</linearGradient>
</defs>
</svg>
